<svg width="25" height="24" viewBox="0 0 25 24" fill="none" xmlns="http://www.w3.org/2000/svg">
<path d="M10.7681 20.3903H21.8654V9.29302M4.10973 13.7319V2.63465H15.207M17.9813 3.1895C18.4228 2.74802 19.0216 2.5 19.6459 2.5C19.9551 2.5 20.2612 2.56089 20.5468 2.67919C20.8324 2.7975 21.0919 2.9709 21.3105 3.1895C21.5291 3.40809 21.7025 3.66761 21.8208 3.95322C21.9391 4.23883 22 4.54495 22 4.85409C22 5.16323 21.9391 5.46935 21.8208 5.75496C21.7025 6.04057 21.5291 6.30008 21.3105 6.51868L7.43891 20.3903L3 21.5L4.10973 17.0611L17.9813 3.1895Z" stroke="#595959" stroke-width="1.3" stroke-linecap="round" stroke-linejoin="round"/>
</svg>
