<svg width="24" height="24" viewBox="0 0 24 24" fill="none" xmlns="http://www.w3.org/2000/svg">
<circle cx="9.65039" cy="6.46484" r="4.46484" stroke="#0923A9" stroke-width="1.3"/>
<path d="M19.3899 20.2481L19.6238 20.8545L20.0895 20.6749L20.0362 20.1786L19.3899 20.2481ZM0.682617 20.3258L0.0351105 20.2689L-0.00806916 20.7605L0.453808 20.9342L0.682617 20.3258ZM10.179 12.7157L10.1684 13.3656L10.179 12.7157ZM19.156 19.6416C16.2952 20.7449 13.1862 21.3501 9.9342 21.3501V22.6501C13.3486 22.6501 16.6161 22.0145 19.6238 20.8545L19.156 19.6416ZM9.9342 21.3501C6.75748 21.3501 3.71714 20.7726 0.911426 19.7174L0.453808 20.9342C3.40358 22.0435 6.59881 22.6501 9.9342 22.6501V21.3501ZM1.33012 20.3827C1.67491 16.4576 5.45821 13.2885 10.1684 13.3656L10.1896 12.0658C4.93288 11.9797 0.450736 15.5373 0.0351105 20.2689L1.33012 20.3827ZM10.1684 13.3656C14.7362 13.4404 18.3378 16.5417 18.7436 20.3175L20.0362 20.1786C19.5481 15.6369 15.2925 12.1493 10.1896 12.0658L10.1684 13.3656Z" fill="#0923A9"/>
<path d="M17.2329 10.1533H23.3175" stroke="#0923A9" stroke-width="1.3" stroke-linecap="round"/>
<path d="M20.2754 7.11108L20.2754 13.1957" stroke="#0923A9" stroke-width="1.3" stroke-linecap="round"/>
</svg>
