<svg width="40" height="17" viewBox="0 0 40 17" fill="none" xmlns="http://www.w3.org/2000/svg">
<path d="M39.795 15.295L35.2217 8.30722L39.7483 1.60444C39.8558 1.44472 39.9145 1.26203 39.9183 1.07506C39.9221 0.888093 39.871 0.703564 39.7701 0.540352C39.6692 0.37714 39.5222 0.241104 39.3442 0.146161C39.1661 0.0512189 38.9634 0.000778098 38.7567 0H2.33333C1.71449 0 1.121 0.22242 0.683418 0.618331C0.245833 1.01424 0 1.55121 0 2.11111L0 14.7778C0 15.3377 0.245833 15.8746 0.683418 16.2706C1.121 16.6665 1.71449 16.8889 2.33333 16.8889H38.7917C38.9976 16.8889 39.1998 16.8395 39.3779 16.7459C39.5559 16.6522 39.7033 16.5176 39.8052 16.3557C39.9072 16.1938 39.9599 16.0104 39.9581 15.8241C39.9563 15.6378 39.9 15.4553 39.795 15.295ZM12.2617 11.8011H10.955L7.15167 7.22V11.8117H5.83333V5.27778H7.15167L10.9667 9.86944V5.27778H12.2733L12.2617 11.8011ZM19.6467 6.33333H15.5283V7.90611H19.2617V8.96167H15.5283V10.6611H19.6467V11.7167H14.21V5.27778H19.635L19.6467 6.33333ZM29.3183 11.78H28L26.1917 6.935L24.3833 11.8011H23.0767L20.7433 5.27778H22.1667L23.7067 9.95389L25.48 5.27778H26.9033L28.6067 9.95389L30.1583 5.27778H31.5933L29.3183 11.78Z" fill="#007AFF"/>
</svg>
