<svg width="14" height="14" viewBox="0 0 14 14" fill="none" xmlns="http://www.w3.org/2000/svg">
<path d="M5.83345 7.58333C6.08396 7.91824 6.40357 8.19536 6.7706 8.39588C7.13763 8.59641 7.5435 8.71565 7.96066 8.74553C8.37783 8.7754 8.79654 8.71521 9.1884 8.56904C9.58026 8.42286 9.9361 8.19412 10.2318 7.89833L11.9818 6.14833C12.5131 5.59824 12.8071 4.86149 12.8004 4.09675C12.7938 3.33201 12.487 2.60047 11.9463 2.0597C11.4055 1.51892 10.6739 1.21218 9.9092 1.20553C9.14446 1.19889 8.40771 1.49287 7.85762 2.02417L6.85428 3.02167M8.16678 6.41667C7.91627 6.08176 7.59666 5.80464 7.22963 5.60412C6.8626 5.40359 6.45674 5.28435 6.03957 5.25447C5.6224 5.22459 5.20369 5.28479 4.81183 5.43096C4.41997 5.57714 4.06413 5.80588 3.76845 6.10167L2.01845 7.85167C1.48716 8.40176 1.19317 9.13851 1.19982 9.90325C1.20646 10.668 1.51321 11.3995 2.05398 11.9403C2.59475 12.4811 3.32629 12.7878 4.09103 12.7945C4.85577 12.8011 5.59253 12.5071 6.14262 11.9758L7.14012 10.9783" stroke="#1E1E1E" stroke-width="1.6" stroke-linecap="round" stroke-linejoin="round"/>
</svg>
