<svg xmlns="http://www.w3.org/2000/svg" width="20" height="20" viewBox="0 0 20 20" fill="none">
  <circle cx="10.2626" cy="7.05749" r="3.05749" stroke="#0923A9" stroke-width="1.3"/>
  <path d="M16.8106 16.4959L17.0445 17.1023L17.5102 16.9227L17.4568 16.4264L16.8106 16.4959ZM4 16.5492L3.35249 16.4923L3.30931 16.9839L3.7712 17.1576L4 16.5492ZM10.503 11.3379L10.4924 11.9878L10.503 11.3379ZM16.5767 15.8894C14.6408 16.636 12.5366 17.0457 10.3353 17.0457V18.3457C12.6991 18.3457 14.9617 17.9056 17.0445 17.1023L16.5767 15.8894ZM10.3353 17.0457C8.18496 17.0457 6.1274 16.6548 4.2288 15.9408L3.7712 17.1576C5.81385 17.9258 8.02629 18.3457 10.3353 18.3457V17.0457ZM4.64751 16.6061C4.87248 14.0453 7.3531 11.9364 10.4924 11.9878L10.5137 10.688C6.82778 10.6276 3.64832 13.1251 3.35249 16.4923L4.64751 16.6061ZM10.4924 11.9878C13.536 12.0377 15.8993 14.1005 16.1643 16.5653L17.4568 16.4264C17.1095 13.1957 14.0923 10.7466 10.5137 10.688L10.4924 11.9878Z" fill="#0923A9"/>
</svg>