<svg width="22" height="22" viewBox="0 0 22 22" fill="none" xmlns="http://www.w3.org/2000/svg">
<path d="M14.6666 7.33329V11.9166C14.6666 12.646 14.9563 13.3454 15.4721 13.8612C15.9878 14.3769 16.6873 14.6666 17.4166 14.6666C18.1459 14.6666 18.8454 14.3769 19.3611 13.8612C19.8769 13.3454 20.1666 12.646 20.1666 11.9166V11C20.1665 8.93107 19.4665 6.92306 18.1804 5.30245C16.8944 3.68183 15.0979 2.54392 13.0832 2.07373C11.0684 1.60355 8.95387 1.82875 7.08333 2.71271C5.21279 3.59668 3.69629 5.08742 2.78041 6.94254C1.86454 8.79766 1.60315 10.9081 2.03875 12.9306C2.47435 14.9531 3.58132 16.7688 5.17967 18.0824C6.77802 19.396 8.77374 20.1303 10.8423 20.1658C12.9109 20.2014 14.9307 19.5362 16.5733 18.2783M14.6666 11C14.6666 13.025 13.025 14.6666 10.9999 14.6666C8.97488 14.6666 7.33326 13.025 7.33326 11C7.33326 8.97492 8.97488 7.33329 10.9999 7.33329C13.025 7.33329 14.6666 8.97492 14.6666 11Z" stroke="#A8A8A8" stroke-width="1.4" stroke-linecap="round" stroke-linejoin="round"/>
</svg>
