<svg xmlns="http://www.w3.org/2000/svg" width="20" height="14" viewBox="0 0 20 14" fill="none">
  <path d="M1.5 8.60156C2.91667 9.95472 4.33333 9.95472 5.75 8.60156C7.16667 9.95472 8.58333 9.95472 10 8.60156C11.4167 9.95472 12.8333 9.95472 14.25 8.60156C15.6667 9.95472 17.0833 9.95472 18.5 8.60156" stroke="#0923A9" stroke-width="1.3" stroke-linecap="round" stroke-linejoin="round"/>
  <path d="M1.5 5.08615C2.91667 6.43931 4.33333 6.43931 5.75 5.08615C7.26603 3.63809 9.32895 -1.43626 12.0132 1.86205C9.32895 1.86205 9.32895 6.09821 12.2368 6.09821C12.9079 6.06448 13.5789 5.72712 14.25 5.08615C15.6667 6.43931 17.0833 6.43931 18.5 5.08615" stroke="#0923A9" stroke-width="1.3" stroke-linecap="round" stroke-linejoin="round"/>
  <path d="M1.5 12.2173C2.91667 13.5704 4.33333 13.5704 5.75 12.2173C7.16667 13.5704 8.58333 13.5704 10 12.2173C11.4167 13.5704 12.8333 13.5704 14.25 12.2173C15.6667 13.5704 17.0833 13.5704 18.5 12.2173" stroke="#0923A9" stroke-width="1.3" stroke-linecap="round" stroke-linejoin="round"/>
</svg>