<svg xmlns="http://www.w3.org/2000/svg" width="24" height="24" viewBox="0 0 24 24" fill="none">
  <g clip-path="url(#clip0_648_2424)">
    <path fill-rule="evenodd" clip-rule="evenodd" d="M3.04481 0.130859C2.27198 0.130859 1.53081 0.437864 0.984338 0.984337C0.437865 1.53081 0.130859 2.27198 0.130859 3.04481V5.48717C0.130859 6.19727 0.706494 6.77289 1.41657 6.77289C2.12666 6.77289 2.70228 6.19727 2.70228 5.48717V3.04481C2.70228 2.95397 2.73837 2.86685 2.80262 2.80262C2.86685 2.73837 2.95397 2.70228 3.04481 2.70228H5.48717C6.19726 2.70228 6.77289 2.12666 6.77289 1.41657C6.77289 0.706493 6.19726 0.130859 5.48717 0.130859H3.04481ZM6.85017 4.7069C5.66669 4.7069 4.70731 5.6663 4.70731 6.84976V10.4034C4.70731 11.5869 5.66669 12.5463 6.85017 12.5463H10.4038C11.5873 12.5463 12.5467 11.5869 12.5467 10.4034V6.84976C12.5467 5.66628 11.5873 4.7069 10.4038 4.7069H6.85017ZM7.27874 9.97483V7.27833H9.97524V9.97483H7.27874ZM17.2275 1.4167C17.2275 0.706625 17.8032 0.13099 18.5132 0.13099H20.9555C21.7283 0.13099 22.4696 0.437996 23.0161 0.984468C23.5625 1.53094 23.8695 2.27212 23.8695 3.04495V5.48731C23.8695 6.19739 23.2938 6.77303 22.5838 6.77303C21.8737 6.77303 21.2981 6.19739 21.2981 5.48731V3.04495C21.2981 2.95409 21.2621 2.86697 21.1978 2.80274C21.1335 2.73851 21.0464 2.70242 20.9555 2.70242H18.5132C17.8032 2.70242 17.2275 2.12678 17.2275 1.4167ZM2.70238 18.5133C2.70238 17.8032 2.12676 17.2275 1.41668 17.2275C0.706598 17.2275 0.130964 17.8032 0.130964 18.5133V20.9556C0.130964 21.7284 0.437969 22.4697 0.984443 23.0162C1.53091 23.5625 2.27208 23.8695 3.04492 23.8695H5.48728C6.19737 23.8695 6.77299 23.2939 6.77299 22.5838C6.77299 21.8738 6.19737 21.2981 5.48728 21.2981H3.04492C2.95408 21.2981 2.86696 21.2621 2.80272 21.1978C2.73849 21.1335 2.70238 21.0465 2.70238 20.9556V18.5133ZM22.5838 17.2275C23.2938 17.2275 23.8695 17.8032 23.8695 18.5133V20.9556C23.8695 21.7284 23.5625 22.4697 23.0161 23.0162C22.4696 23.5625 21.7283 23.8695 20.9555 23.8695H18.5132C17.8032 23.8695 17.2275 23.2939 17.2275 22.5838C17.2275 21.8738 17.8032 21.2981 18.5132 21.2981H20.9555C21.0464 21.2981 21.1335 21.2621 21.1978 21.1978C21.2621 21.1335 21.2981 21.0465 21.2981 20.9556V18.5133C21.2981 17.8032 21.8737 17.2275 22.5838 17.2275ZM7.27882 15.7547C7.27882 15.0446 6.70318 14.469 5.99311 14.469C5.28304 14.469 4.7074 15.0446 4.7074 15.7547V18.0074C4.7074 18.7174 5.28304 19.2931 5.99311 19.2931H8.24584C8.95591 19.2931 9.53155 18.7174 9.53155 18.0074C9.53155 17.2973 8.95591 16.7217 8.24584 16.7217H7.27882V15.7547ZM9.78177 15.7547C9.78177 15.0446 10.3574 14.469 11.0675 14.469H12.0001C12.7102 14.469 13.2858 15.0446 13.2858 15.7547V18.0074C13.2858 18.7174 12.7102 19.2931 12.0001 19.2931C11.29 19.2931 10.7144 18.7174 10.7144 18.0074V16.9913C10.176 16.8379 9.78177 16.3423 9.78177 15.7547ZM17.0404 5.99275C17.0404 5.28266 16.4648 4.70704 15.7547 4.70704C15.0446 4.70704 14.469 5.28266 14.469 5.99275V8.24548C14.469 8.95555 15.0446 9.53119 15.7547 9.53119H18.0073C18.7176 9.53119 19.293 8.95555 19.293 8.24548C19.293 7.53539 18.7176 6.95976 18.0073 6.95976H17.0404V5.99275ZM14.469 12.0001C14.469 11.2901 15.0446 10.7144 15.7547 10.7144H18.0073C18.7176 10.7144 19.293 11.2901 19.293 12.0001V13.0956C19.293 13.8057 18.7176 14.3813 18.0073 14.3813C17.3619 14.3813 16.8276 13.9057 16.7357 13.2859H15.7547C15.0446 13.2859 14.469 12.7102 14.469 12.0001ZM17.0404 15.7547C17.0404 15.0446 16.4648 14.469 15.7547 14.469C15.0446 14.469 14.469 15.0446 14.469 15.7547V18.0074C14.469 18.7174 15.0446 19.2931 15.7547 19.2931H18.0073C18.7176 19.2931 19.293 18.7174 19.293 18.0074C19.293 17.2973 18.7176 16.7217 18.0073 16.7217H17.0404V15.7547Z" fill="black"/>
  </g>
  <defs>
    <clipPath id="clip0_648_2424">
      <rect width="24" height="24" fill="white"/>
    </clipPath>
  </defs>
</svg>