<svg width="15" height="16" viewBox="0 0 15 16" fill="none" xmlns="http://www.w3.org/2000/svg">
<path d="M13.1251 13.6251L10.4108 10.9108M10.4108 10.9108C10.8751 10.4464 11.2434 9.89524 11.4946 9.2886C11.7459 8.68195 11.8753 8.03176 11.8753 7.37513C11.8753 6.7185 11.7459 6.06831 11.4946 5.46166C11.2434 4.85502 10.8751 4.30381 10.4108 3.8395C9.94645 3.3752 9.39524 3.00689 8.7886 2.75561C8.18195 2.50433 7.53176 2.375 6.87513 2.375C6.2185 2.375 5.56831 2.50433 4.96166 2.75561C4.35502 3.00689 3.80381 3.3752 3.3395 3.8395C2.4018 4.77721 1.875 6.04901 1.875 7.37513C1.875 8.70125 2.4018 9.97305 3.3395 10.9108C4.27721 11.8485 5.54901 12.3753 6.87513 12.3753C8.20125 12.3753 9.47305 11.8485 10.4108 10.9108Z" stroke="#616161" stroke-width="1.3" stroke-linecap="round" stroke-linejoin="round"/>
</svg>
