<svg xmlns="http://www.w3.org/2000/svg" width="24" height="24" viewBox="0 0 24 24" fill="none">
  <mask id="path-1-inside-1_775_3144" fill="white">
    <path fill-rule="evenodd" clip-rule="evenodd" d="M14.8239 0H9.17639V2.52752C8.51991 2.72287 7.89202 2.98459 7.30049 3.3049L5.53868 1.54306L1.54531 5.53652L3.30592 7.29717C3.10174 7.67372 2.9213 8.06503 2.76662 8.46908H0V14.1167H2.34341C2.49181 14.7974 2.71035 15.4519 2.99107 16.0722L1.04554 18.0178L5.03892 22.0112L6.70293 20.3472C7.4631 20.8307 8.29382 21.2132 9.17617 21.4758V24H14.8237V21.4756C15.482 21.2797 16.1116 21.017 16.7047 20.6953L18.5187 22.5094L22.5121 18.516L20.6966 16.7004C21.1303 15.8994 21.4565 15.0317 21.656 14.1167H24.0014V8.46908H21.2328C20.9952 7.84857 20.6969 7.25812 20.3452 6.70501L22.0133 5.03686L18.0199 1.0434L16.0704 2.99297C15.6685 2.81108 15.2523 2.6553 14.8239 2.52777V0ZM16.2372 12.0033C16.2372 14.3426 14.3409 16.239 12.0016 16.239C9.66236 16.239 7.76601 14.3426 7.76601 12.0033C7.76601 9.66394 9.66236 7.76755 12.0016 7.76755C14.3409 7.76755 16.2372 9.66394 16.2372 12.0033Z"/>
  </mask>
  <path d="M9.17639 0V-1.2C8.51365 -1.2 7.97639 -0.662742 7.97639 0L9.17639 0ZM14.8239 0H16.0239C16.0239 -0.662742 15.4866 -1.2 14.8239 -1.2V0ZM9.17639 2.52752L9.51864 3.67768C10.0275 3.52625 10.3764 3.05844 10.3764 2.52752H9.17639ZM7.30049 3.3049L6.45195 4.15342C6.82741 4.52888 7.40498 4.61296 7.8719 4.36012L7.30049 3.3049ZM5.53868 1.54306L6.38722 0.694538C6.16218 0.469489 5.85695 0.343057 5.53868 0.343058C5.22042 0.343058 4.91519 0.469489 4.69015 0.694538L5.53868 1.54306ZM1.54531 5.53652L0.696768 4.688C0.228151 5.15663 0.228151 5.91641 0.696768 6.38504L1.54531 5.53652ZM3.30592 7.29717L4.36081 7.86919C4.61404 7.4022 4.53009 6.82429 4.15446 6.44865L3.30592 7.29717ZM2.76662 8.46908V9.66908C3.26383 9.66908 3.70955 9.36245 3.88731 8.8981L2.76662 8.46908ZM0 8.46908V7.26908C-0.662742 7.26908 -1.2 7.80634 -1.2 8.46908H0ZM0 14.1167H-1.2C-1.2 14.7794 -0.662742 15.3167 0 15.3167L0 14.1167ZM2.34341 14.1167L3.51587 13.8611C3.39569 13.3098 2.90766 12.9167 2.34341 12.9167V14.1167ZM2.99107 16.0722L3.83961 16.9207C4.19279 16.5675 4.29027 16.0325 4.08434 15.5774L2.99107 16.0722ZM1.04554 18.0178L0.197002 17.1693C-0.271616 17.6379 -0.271616 18.3977 0.197002 18.8663L1.04554 18.0178ZM5.03892 22.0112L4.19038 22.8598C4.41542 23.0848 4.72065 23.2112 5.03892 23.2112C5.35718 23.2112 5.66241 23.0848 5.88745 22.8598L5.03892 22.0112ZM6.70293 20.3472L7.34694 19.3346C6.87245 19.0329 6.25202 19.101 5.85439 19.4987L6.70293 20.3472ZM9.17617 21.4758H10.3762C10.3762 20.9449 10.0273 20.4771 9.51845 20.3256L9.17617 21.4758ZM9.17617 24H7.97617C7.97617 24.6627 8.51342 25.2 9.17617 25.2V24ZM14.8237 24V25.2C15.4864 25.2 16.0237 24.6627 16.0237 24H14.8237ZM14.8237 21.4756L14.4813 20.3255C13.9725 20.477 13.6237 20.9448 13.6237 21.4756H14.8237ZM16.7047 20.6953L17.5532 19.8468C17.1775 19.4711 16.5996 19.3872 16.1326 19.6405L16.7047 20.6953ZM18.5187 22.5094L17.6702 23.3579C17.8952 23.583 18.2004 23.7094 18.5187 23.7094C18.837 23.7094 19.1422 23.583 19.3672 23.3579L18.5187 22.5094ZM22.5121 18.516L23.3606 19.3645C23.8292 18.8958 23.8292 18.1361 23.3606 17.6674L22.5121 18.516ZM20.6966 16.7004L19.6413 16.1291C19.3885 16.596 19.4726 17.1735 19.8481 17.549L20.6966 16.7004ZM21.656 14.1167V12.9167C21.0917 12.9167 20.6037 13.3098 20.4835 13.8611L21.656 14.1167ZM24.0014 14.1167V15.3167C24.6641 15.3167 25.2014 14.7794 25.2014 14.1167H24.0014ZM24.0014 8.46908H25.2014C25.2014 7.80634 24.6641 7.26908 24.0014 7.26908V8.46908ZM21.2328 8.46908L20.1121 8.8981C20.2899 9.36245 20.7356 9.66908 21.2328 9.66908V8.46908ZM20.3452 6.70501L19.4966 5.85649C19.099 6.25411 19.0308 6.8745 19.3326 7.34898L20.3452 6.70501ZM22.0133 5.03686L22.8618 5.88538C23.3304 5.41675 23.3304 4.65697 22.8618 4.18834L22.0133 5.03686ZM18.0199 1.0434L18.8685 0.194882C18.6434 -0.0301671 18.3382 -0.156599 18.0199 -0.156599C17.7017 -0.156599 17.3964 -0.0301669 17.1714 0.194882L18.0199 1.0434ZM16.0704 2.99297L15.5756 4.08622C16.0307 4.29218 16.5657 4.1947 16.9189 3.84149L16.0704 2.99297ZM14.8239 2.52777H13.6239C13.6239 3.05865 13.9727 3.52644 14.4815 3.6779L14.8239 2.52777ZM9.17639 1.2H14.8239V-1.2H9.17639V1.2ZM10.3764 2.52752V0H7.97639V2.52752H10.3764ZM7.8719 4.36012C8.39141 4.07881 8.94258 3.8491 9.51864 3.67768L8.83414 1.37736C8.09725 1.59664 7.39263 1.89037 6.72909 2.24968L7.8719 4.36012ZM4.69015 2.39158L6.45195 4.15342L8.14903 2.45638L6.38722 0.694538L4.69015 2.39158ZM2.39384 6.38504L6.38722 2.39158L4.69015 0.694538L0.696768 4.688L2.39384 6.38504ZM4.15446 6.44865L2.39384 4.688L0.696768 6.38504L2.45739 8.14569L4.15446 6.44865ZM3.88731 8.8981C4.02307 8.54347 4.18148 8.19991 4.36081 7.86919L2.25103 6.72515C2.02199 7.14753 1.81953 7.58658 1.64593 8.04006L3.88731 8.8981ZM0 9.66908H2.76662V7.26908H0V9.66908ZM1.2 14.1167V8.46908H-1.2V14.1167H1.2ZM2.34341 12.9167H0V15.3167H2.34341V12.9167ZM4.08434 15.5774C3.83791 15.0329 3.64612 14.4585 3.51587 13.8611L1.17095 14.3723C1.3375 15.1362 1.58279 15.8708 1.89781 16.5669L4.08434 15.5774ZM1.89408 18.8663L3.83961 16.9207L2.14254 15.2237L0.197002 17.1693L1.89408 18.8663ZM5.88745 21.1627L1.89408 17.1693L0.197002 18.8663L4.19038 22.8598L5.88745 21.1627ZM5.85439 19.4987L4.19038 21.1627L5.88745 22.8598L7.55146 21.1957L5.85439 19.4987ZM9.51845 20.3256C8.74422 20.0952 8.01487 19.7595 7.34694 19.3346L6.05891 21.3597C6.91134 21.9019 7.84341 22.3312 8.83388 22.6259L9.51845 20.3256ZM10.3762 24V21.4758H7.97617V24H10.3762ZM14.8237 22.8H9.17617V25.2H14.8237V22.8ZM13.6237 21.4756V24H16.0237V21.4756H13.6237ZM16.1326 19.6405C15.6117 19.923 15.0591 20.1536 14.4813 20.3255L15.166 22.6258C15.905 22.4058 16.6116 22.111 17.2768 21.7502L16.1326 19.6405ZM19.3672 21.6609L17.5532 19.8468L15.8561 21.5439L17.6702 23.3579L19.3672 21.6609ZM21.6635 17.6674L17.6702 21.6609L19.3672 23.3579L23.3606 19.3645L21.6635 17.6674ZM19.8481 17.549L21.6635 19.3645L23.3606 17.6674L21.5451 15.8519L19.8481 17.549ZM20.4835 13.8611C20.3085 14.6641 20.0222 15.4257 19.6413 16.1291L21.7519 17.2717C22.2384 16.3731 22.6045 15.3993 22.8284 14.3723L20.4835 13.8611ZM24.0014 12.9167H21.656V15.3167H24.0014V12.9167ZM22.8014 8.46908V14.1167H25.2014V8.46908H22.8014ZM21.2328 9.66908H24.0014V7.26908H21.2328V9.66908ZM19.3326 7.34898C19.6417 7.83499 19.9036 8.3535 20.1121 8.8981L22.3535 8.04006C22.0869 7.34364 21.7522 6.68125 21.3578 6.06104L19.3326 7.34898ZM21.1648 4.18834L19.4966 5.85649L21.1937 7.55353L22.8618 5.88538L21.1648 4.18834ZM17.1714 1.89192L21.1648 5.88538L22.8618 4.18834L18.8685 0.194882L17.1714 1.89192ZM16.9189 3.84149L18.8685 1.89192L17.1714 0.194882L15.2218 2.14445L16.9189 3.84149ZM14.4815 3.6779C14.8575 3.78981 15.2228 3.92654 15.5756 4.08622L16.5652 1.89973C16.1142 1.69563 15.6471 1.52078 15.1662 1.37765L14.4815 3.6779ZM13.6239 0V2.52777H16.0239V0H13.6239ZM12.0016 17.439C15.0037 17.439 17.4372 15.0053 17.4372 12.0033H15.0372C15.0372 13.6799 13.6781 15.039 12.0016 15.039V17.439ZM6.56601 12.0033C6.56601 15.0053 8.99959 17.439 12.0016 17.439V15.039C10.3251 15.039 8.96601 13.6799 8.96601 12.0033H6.56601ZM12.0016 6.56755C8.99959 6.56755 6.56601 9.00122 6.56601 12.0033H8.96601C8.96601 10.3267 10.3251 8.96755 12.0016 8.96755V6.56755ZM17.4372 12.0033C17.4372 9.00123 15.0037 6.56755 12.0016 6.56755V8.96755C13.6781 8.96755 15.0372 10.3267 15.0372 12.0033H17.4372Z" fill="#0923A9" mask="url(#path-1-inside-1_775_3144)"/>
</svg>