<svg width="94" height="22" viewBox="0 0 94 22" fill="none" xmlns="http://www.w3.org/2000/svg">
<path d="M10.8434 20.244C10.526 20.3747 10.1434 20.524 9.69536 20.692C9.24736 20.86 8.76203 20.9907 8.23936 21.084C7.73536 21.196 7.22203 21.252 6.69936 21.252C6.00869 21.252 5.37403 21.1307 4.79536 20.888C4.21669 20.6453 3.75003 20.2627 3.39536 19.74C3.05936 19.1987 2.89136 18.4987 2.89136 17.64V9.212H0.959361V6.328H2.89136V1.568H6.64336V6.328H9.72336V9.212H6.64336V16.38C6.66203 16.884 6.80203 17.248 7.06336 17.472C7.32469 17.696 7.65136 17.808 8.04336 17.808C8.43536 17.808 8.81803 17.7427 9.19136 17.612C9.56469 17.4813 9.86336 17.3693 10.0874 17.276L10.8434 20.244ZM18.8774 21.28C17.7014 21.28 16.6374 21.084 15.6854 20.692C14.7334 20.2813 13.9214 19.7307 13.2494 19.04C12.5774 18.3307 12.0547 17.528 11.6814 16.632C11.3267 15.7173 11.1494 14.756 11.1494 13.748C11.1494 12.348 11.4574 11.0693 12.0734 9.912C12.7081 8.75467 13.6041 7.83067 14.7614 7.14C15.9374 6.43067 17.3187 6.076 18.9054 6.076C20.5107 6.076 21.8827 6.43067 23.0214 7.14C24.1601 7.83067 25.0281 8.75467 25.6254 9.912C26.2414 11.0507 26.5494 12.2827 26.5494 13.608C26.5494 13.832 26.5401 14.0653 26.5214 14.308C26.5027 14.532 26.4841 14.7187 26.4654 14.868H15.1254C15.2001 15.6147 15.4147 16.268 15.7694 16.828C16.1427 17.388 16.6094 17.8173 17.1694 18.116C17.7481 18.396 18.3641 18.536 19.0174 18.536C19.7641 18.536 20.4641 18.3587 21.1174 18.004C21.7894 17.6307 22.2467 17.1453 22.4894 16.548L25.7094 17.444C25.3547 18.1907 24.8414 18.8533 24.1694 19.432C23.5161 20.0107 22.7414 20.468 21.8454 20.804C20.9494 21.1213 19.9601 21.28 18.8774 21.28ZM15.0414 12.488H22.7134C22.6387 11.7413 22.4241 11.0973 22.0694 10.556C21.7334 9.996 21.2854 9.56667 20.7254 9.268C20.1654 8.95067 19.5401 8.792 18.8494 8.792C18.1774 8.792 17.5614 8.95067 17.0014 9.268C16.4601 9.56667 16.0121 9.996 15.6574 10.556C15.3214 11.0973 15.1161 11.7413 15.0414 12.488ZM27.2671 16.66C27.2671 15.708 27.5284 14.8773 28.0511 14.168C28.5924 13.44 29.3391 12.88 30.2911 12.488C31.2431 12.096 32.3351 11.9 33.5671 11.9C34.1831 11.9 34.8084 11.9467 35.4431 12.04C36.0778 12.1333 36.6284 12.2827 37.0951 12.488V11.704C37.0951 10.7707 36.8151 10.052 36.2551 9.548C35.7138 9.044 34.9018 8.792 33.8191 8.792C33.0164 8.792 32.2511 8.932 31.5231 9.212C30.7951 9.492 30.0298 9.90267 29.2271 10.444L28.0231 7.98C28.9938 7.34533 29.9831 6.86933 30.9911 6.552C32.0178 6.23467 33.0911 6.076 34.2111 6.076C36.3018 6.076 37.9258 6.59867 39.0831 7.644C40.2591 8.68933 40.8471 10.1827 40.8471 12.124V16.8C40.8471 17.192 40.9124 17.472 41.0431 17.64C41.1924 17.808 41.4258 17.9107 41.7431 17.948V21C41.4071 21.056 41.0991 21.1027 40.8191 21.14C40.5578 21.1773 40.3338 21.196 40.1471 21.196C39.4004 21.196 38.8311 21.028 38.4391 20.692C38.0658 20.356 37.8324 19.9453 37.7391 19.46L37.6551 18.704C37.0204 19.5253 36.2271 20.16 35.2751 20.608C34.3231 21.056 33.3524 21.28 32.3631 21.28C31.3924 21.28 30.5151 21.084 29.7311 20.692C28.9658 20.2813 28.3591 19.7307 27.9111 19.04C27.4818 18.3307 27.2671 17.5373 27.2671 16.66ZM36.3951 17.416C36.6004 17.192 36.7684 16.968 36.8991 16.744C37.0298 16.52 37.0951 16.3147 37.0951 16.128V14.644C36.6471 14.4573 36.1618 14.3173 35.6391 14.224C35.1164 14.112 34.6218 14.056 34.1551 14.056C33.1844 14.056 32.3818 14.2707 31.7471 14.7C31.1311 15.1107 30.8231 15.6613 30.8231 16.352C30.8231 16.7253 30.9258 17.08 31.1311 17.416C31.3364 17.752 31.6351 18.0227 32.0271 18.228C32.4191 18.4333 32.8858 18.536 33.4271 18.536C33.9871 18.536 34.5378 18.4333 35.0791 18.228C35.6204 18.004 36.0591 17.7333 36.3951 17.416ZM66.5852 21H62.8332V12.768C62.8332 11.6107 62.6279 10.7613 62.2172 10.22C61.8252 9.66 61.2746 9.38 60.5652 9.38C59.8372 9.38 59.1372 9.66933 58.4652 10.248C57.8119 10.808 57.3452 11.5453 57.0652 12.46V21H53.3132V12.768C53.3132 11.592 53.1079 10.7333 52.6972 10.192C52.3052 9.65067 51.7546 9.38 51.0452 9.38C50.3172 9.38 49.6172 9.66 48.9452 10.22C48.2919 10.78 47.8252 11.5173 47.5452 12.432V21H43.7932V6.328H47.1812V9.044C47.7412 8.092 48.4879 7.364 49.4212 6.86C50.3546 6.33733 51.4279 6.076 52.6412 6.076C53.8546 6.076 54.7972 6.37467 55.4692 6.972C56.1599 7.56933 56.5986 8.30667 56.7852 9.184C57.3826 8.176 58.1386 7.41067 59.0532 6.888C59.9866 6.34667 61.0319 6.076 62.1892 6.076C63.1039 6.076 63.8412 6.244 64.4012 6.58C64.9799 6.89733 65.4279 7.336 65.7452 7.896C66.0626 8.43733 66.2772 9.05333 66.3892 9.744C66.5199 10.4347 66.5852 11.1347 66.5852 11.844V21ZM77.6358 21.28C76.5158 21.28 75.5172 21.028 74.6398 20.524C73.7625 20.02 73.0718 19.3293 72.5678 18.452V21H69.2918V0.559999H73.0438V8.904C73.5665 8.02667 74.2478 7.336 75.0878 6.832C75.9465 6.328 76.9452 6.076 78.0838 6.076C79.0358 6.076 79.9038 6.28133 80.6878 6.692C81.4718 7.084 82.1438 7.63467 82.7038 8.344C83.2825 9.05333 83.7212 9.86533 84.0198 10.78C84.3372 11.6947 84.4958 12.6747 84.4958 13.72C84.4958 14.7653 84.3185 15.7453 83.9638 16.66C83.6278 17.5747 83.1518 18.3867 82.5358 19.096C81.9198 19.7867 81.1918 20.328 80.3518 20.72C79.5305 21.0933 78.6252 21.28 77.6358 21.28ZM76.5998 18.088C77.1972 18.088 77.7385 17.976 78.2238 17.752C78.7278 17.5093 79.1572 17.192 79.5118 16.8C79.8852 16.408 80.1652 15.9507 80.3518 15.428C80.5572 14.8867 80.6598 14.3267 80.6598 13.748C80.6598 12.9453 80.4918 12.208 80.1558 11.536C79.8385 10.8453 79.3905 10.2947 78.8118 9.884C78.2518 9.47333 77.5892 9.268 76.8238 9.268C76.2825 9.268 75.7598 9.39867 75.2558 9.66C74.7705 9.90267 74.3318 10.2387 73.9398 10.668C73.5665 11.0973 73.2678 11.5827 73.0438 12.124V15.624C73.1558 15.9973 73.3332 16.3333 73.5758 16.632C73.8372 16.9307 74.1358 17.192 74.4718 17.416C74.8078 17.6213 75.1532 17.7893 75.5078 17.92C75.8812 18.032 76.2452 18.088 76.5998 18.088ZM86.4499 0.559999H90.2019V16.296C90.2019 16.968 90.3139 17.4253 90.5379 17.668C90.7619 17.892 91.0699 18.004 91.4619 18.004C91.7606 18.004 92.0686 17.9667 92.3859 17.892C92.7033 17.8173 92.9833 17.724 93.2259 17.612L93.7299 20.468C93.2259 20.7107 92.6379 20.8973 91.9659 21.028C91.2939 21.1587 90.6873 21.224 90.1459 21.224C88.9699 21.224 88.0553 20.916 87.4019 20.3C86.7673 19.6653 86.4499 18.7693 86.4499 17.612V0.559999Z" fill="#2546F3"/>
</svg>
