<svg xmlns="http://www.w3.org/2000/svg" width="22" height="22" viewBox="0 0 22 22" fill="none">
  <path d="M2 18.286L3.8498 16.0018V9.07296C3.87352 6.33189 5.3581 0.880182 11.1067 1.00201C16.8553 1.12383 18.1028 6.43341 18.0079 9.07296V16.0018L20 18.286H13.5968C13.6917 19.5297 13.2696 21 10.8221 21C8.3747 21 8.14229 19.5297 8.33202 18.286H2Z" fill="#0923A9"/>
  <path d="M8.33202 18.286H2L3.8498 16.0018V9.07296C3.87352 6.33189 5.3581 0.880182 11.1067 1.00201C16.8553 1.12383 18.1028 6.43341 18.0079 9.07296V16.0018L20 18.286H13.5968M8.33202 18.286C8.14229 19.5297 8.3747 21 10.8221 21C13.2696 21 13.6917 19.5297 13.5968 18.286M8.33202 18.286H13.5968" stroke="#0923A9" stroke-width="1.2"/>
</svg>