<svg width="132" height="60" viewBox="0 0 132 60" fill="none" xmlns="http://www.w3.org/2000/svg">
<g filter="url(#filter0_d_1_11178)">
<rect x="6" y="2" width="120" height="48" rx="24" fill="#EEF4FF"/>
<circle cx="102" cy="26" r="24" fill="#2546F3"/>
<path d="M86 29C88.6667 31.2456 91.3333 31.2456 94 29C96.6667 31.2456 99.3333 31.2456 102 29C104.667 31.2456 107.333 31.2456 110 29C112.667 31.2456 115.333 31.2456 118 29" stroke="white" stroke-width="2" stroke-linecap="round" stroke-linejoin="round"/>
<path d="M86 23.166C88.6667 25.4116 91.3333 25.4116 94 23.166C96.8537 20.7629 100.737 12.3418 105.789 17.8155C100.737 17.8155 100.737 24.8456 106.211 24.8456C107.474 24.7896 108.737 24.2297 110 23.166C112.667 25.4116 115.333 25.4116 118 23.166" stroke="white" stroke-width="2" stroke-linecap="round" stroke-linejoin="round"/>
<path d="M86 35C88.6667 37.2456 91.3333 37.2456 94 35C96.6667 37.2456 99.3333 37.2456 102 35C104.667 37.2456 107.333 37.2456 110 35C112.667 37.2456 115.333 37.2456 118 35" stroke="white" stroke-width="2" stroke-linecap="round" stroke-linejoin="round"/>
<path d="M33.6211 20.6328V21.5488H22.4922V20.6328H33.6211ZM32.5547 12.1836V13.0723H30.627V17.3242H32.5273V18.1992H23.5039V17.3242H25.4043V13.0723H23.4766V12.1836H32.5547ZM26.4707 17.3242H29.5742V13.0723H26.4707V17.3242ZM45.7207 20.7012V21.6035H34.5918V20.7012H39.5957V18.4043H35.9863V14.6582H43.2598V12.7441H35.959V11.8555H44.3125V15.5332H37.0527V17.5156H44.5996V18.4043H40.6484V20.7012H45.7207ZM54.6484 11.2266V18.2812H53.6094V14.9863H51.75V14.0977H53.6094V11.2266H54.6484ZM50.2871 13.5645C50.2871 14.8906 51.1758 16.3262 52.7207 16.9688L52.1602 17.7891C51.0186 17.3105 50.2188 16.4014 49.8086 15.3555C49.3779 16.5381 48.5303 17.5566 47.3203 18.0898L46.7461 17.2422C48.332 16.5723 49.248 15.0137 49.248 13.5645V12.8398H46.9785V11.9512H52.4336V12.8398H50.2871V13.5645ZM57.0137 10.9531V18.3906H55.9883V10.9531H57.0137ZM57.0137 18.9238V23.1074H55.9609V19.7988H48.8242V18.9238H57.0137ZM68.6348 17.5293V18.4043H60.2266V12.0059H68.498V12.9082H61.3203V14.7129H68.2383V15.5742H61.3203V17.5293H68.6348ZM69.9199 20.6328V21.5215H58.791V20.6328H69.9199ZM29.4785 29.2793V30.168H28.125V36.0195C28.7812 35.9717 29.4307 35.917 30.0527 35.8418L30.1074 36.6348C27.5371 37.0449 24.625 37.0859 22.4785 37.0996L22.3418 36.1836L23.9824 36.1699V30.168H22.6426V29.2793H29.4785ZM31.8984 27.9531V32.834H33.9355V33.7363H31.8984V40.1074H30.832V27.9531H31.8984ZM25.0215 36.1562C25.6982 36.1426 26.4023 36.1152 27.0996 36.0742V30.168H25.0215V36.1562ZM44.4082 33.6543V34.5293H40.6484V37.6738H45.7207V38.5762H34.5918V37.6738H39.5957V34.5293H36.0137V28.9512H44.2852V29.8262H37.0938V33.6543H44.4082ZM52.9258 29.0605V29.9629H48.3047V32.4785H52.6523V33.3535H48.3047V36.293C50.4922 36.293 52.0303 36.2041 53.8555 35.8965L53.9785 36.7852C52.0781 37.0996 50.4785 37.168 48.1816 37.1816H47.2246V29.0605H52.9258ZM56.0977 27.9531V32.8477H58.1348V33.7637H56.0977V40.1074H55.0312V27.9531H56.0977ZM68.8398 27.9531V40.1074H67.7598V27.9531H68.8398ZM65.2441 29.2793C65.2305 32.7793 63.6035 35.8691 59.5293 37.8242L58.9414 36.9492C62.2295 35.3906 63.9043 33.0596 64.1504 30.1543H59.502V29.2793H65.2441Z" fill="#121212"/>
</g>
<defs>
<filter id="filter0_d_1_11178" x="0" y="0" width="132" height="60" filterUnits="userSpaceOnUse" color-interpolation-filters="sRGB">
<feFlood flood-opacity="0" result="BackgroundImageFix"/>
<feColorMatrix in="SourceAlpha" type="matrix" values="0 0 0 0 0 0 0 0 0 0 0 0 0 0 0 0 0 0 127 0" result="hardAlpha"/>
<feOffset dy="4"/>
<feGaussianBlur stdDeviation="3"/>
<feComposite in2="hardAlpha" operator="out"/>
<feColorMatrix type="matrix" values="0 0 0 0 0 0 0 0 0 0 0 0 0 0 0 0 0 0 0.25 0"/>
<feBlend mode="normal" in2="BackgroundImageFix" result="effect1_dropShadow_1_11178"/>
<feBlend mode="normal" in="SourceGraphic" in2="effect1_dropShadow_1_11178" result="shape"/>
</filter>
</defs>
</svg>
